<?xml version="1.0" encoding="UTF-8"?><svg id="a" xmlns="http://www.w3.org/2000/svg" viewBox="0 0 50 50"><defs><style>.b{fill:#c43049;}</style></defs><path class="b" d="M25,0C11.19,0,0,11.19,0,25s11.19,25,25,25,25-11.19,25-25S38.81,0,25,0Zm9.36,37.54c-2-.08-5.61-.11-8.7-.11h-4.89c-1.81,0-3.65,.04-6.48,.11-.3-.23-.3-1.13,0-1.32l1.77-.26c1.69-.26,1.92-.49,1.92-3.95v-14.04c0-3.43-.23-3.65-1.92-3.99l-.94-.19c-.34-.23-.3-1.09,.08-1.32,1.77,.08,3.61,.11,5.42,.11h7.98c2.41,0,4.56-.04,5.05-.11,.04,.6,.3,3.31,.49,5.84-.15,.41-1.02,.49-1.39,.15-.41-1.32-.94-2.45-1.43-2.97-.72-.72-1.85-1.17-3.69-1.17h-3.01c-1.24,0-1.24,.08-1.24,1.47v6.59c0,1.05,.04,1.13,1.05,1.13h2.6c1.96,0,2.41-.26,2.79-2.07l.19-.94c.26-.3,1.2-.3,1.39,.04-.08,1.2-.11,2.56-.11,3.99s.04,2.79,.11,3.99c-.19,.34-1.13,.38-1.39,.04l-.19-.94c-.38-1.81-.83-2.11-2.79-2.11h-2.6c-1.02,0-1.05,.04-1.05,1.17v4.48c0,1.73,.15,2.94,.6,3.58,.49,.68,1.2,.98,3.95,.98,3.28,0,4.56-.11,6.63-4.37,.3-.41,1.24-.26,1.39,.19-.15,1.96-1.05,5.01-1.58,6.02Z"/></svg>