<?xml version="1.0" encoding="UTF-8"?><svg id="a" xmlns="http://www.w3.org/2000/svg" viewBox="0 0 49.67 49.67"><defs><style>.b{fill:#c43049;}</style></defs><path class="b" d="M35.16,21.48c-.02-.73-.04-1.46-.17-2.18-.25-1.43-.88-2.63-2.04-3.53-.96-.75-2.08-1.07-3.27-1.19-.72-.07-1.45-.09-2.17-.09-2.03,0-4.05-.03-6.08,.02-.77,.02-1.54,.04-2.31,.2-1.6,.32-2.88,1.13-3.73,2.54-.58,.96-.8,2.03-.86,3.13-.04,.64-.06,1.27-.06,1.91,0,2.1-.03,4.2,.03,6.3,.02,.66,.06,1.31,.18,1.96,.32,1.6,1.12,2.87,2.52,3.73,.95,.58,2,.81,3.09,.87,.72,.04,1.44,.07,2.16,.06,2.24,0,4.48,.05,6.72-.06,.56-.03,1.11-.09,1.65-.23,1.35-.33,2.45-1.03,3.25-2.18,.63-.91,.9-1.93,1.01-3.02,.07-.73,.08-1.47,.09-2.2,.01-.89,0-1.79,0-2.68-.01-1.12,.02-2.23-.02-3.35Zm-1.79,5.72c0,.83-.01,1.65-.1,2.47-.11,.97-.41,1.86-1.14,2.57-.58,.56-1.3,.84-2.07,.99-.49,.09-.98,.11-1.48,.12-2.12,.07-4.25,.03-6.38,.03-.8,0-1.61-.02-2.41-.12-1.22-.17-2.24-.68-2.88-1.79-.34-.59-.51-1.25-.55-1.92-.17-2.5-.08-5.01-.09-7.51,0-.8,.02-1.6,.15-2.39,.17-1.01,.59-1.87,1.43-2.5,.58-.44,1.26-.64,1.97-.74,.54-.07,1.08-.08,1.62-.1,2-.06,4.01-.03,6.01-.02,.86,0,1.73,0,2.58,.15,1.06,.18,1.95,.65,2.57,1.56,.37,.54,.55,1.16,.64,1.8,.08,.52,.08,1.05,.1,1.57,.06,1.15,0,2.3,.03,3.23,0,1.02,0,1.81,0,2.59Z"/><path class="b" d="M24.83,0C11.12,0,0,11.12,0,24.83s11.12,24.83,24.83,24.83,24.83-11.12,24.83-24.83S38.55,0,24.83,0Zm13.58,34.84c-.58,1.56-1.63,2.69-3.14,3.39-.82,.38-1.69,.52-2.58,.58-.68,.05-1.37,.03-2.05,.03-4.26,0-8.51,0-12.77,0-.89,0-1.77-.06-2.62-.32-2.31-.72-3.71-2.28-4.22-4.64-.15-.69-.19-1.4-.19-2.1,0-4.66,0-9.31,0-13.97,0-1,.09-1.99,.43-2.94,.57-1.58,1.63-2.73,3.16-3.44,.83-.38,1.71-.53,2.62-.59,.69-.04,1.39-.03,2.08-.03,4.11,0,8.22,0,12.33,0,.91,0,1.82,.03,2.71,.25,1.89,.47,3.26,1.58,4.08,3.35,.43,.93,.59,1.93,.59,2.95,0,2.49,0,4.99,0,7.48s0,4.97,0,7.45c0,.87-.12,1.72-.42,2.54Z"/><path class="b" d="M24.89,19.53c-2.99-.04-5.36,2.32-5.38,5.27-.02,3.01,2.38,5.32,5.26,5.34,2.98,.02,5.36-2.35,5.36-5.29,0-2.93-2.33-5.29-5.23-5.32Zm-.09,8.81c-1.91,0-3.49-1.59-3.48-3.51,0-1.92,1.58-3.49,3.5-3.49,1.92,0,3.49,1.57,3.49,3.49,0,1.94-1.57,3.51-3.51,3.5Z"/><path class="b" d="M30.36,18.07c-.67,0-1.22,.55-1.22,1.23,0,.67,.55,1.21,1.22,1.21,.67,0,1.22-.54,1.22-1.21,0-.68-.55-1.23-1.22-1.23Z"/></svg>