<?xml version="1.0" encoding="UTF-8"?><svg id="a" xmlns="http://www.w3.org/2000/svg" viewBox="0 0 50 49.96"><defs><style>.b{fill:#c43049;}</style></defs><path class="b" d="M25,0C11.19,0,0,11.18,0,24.98s11.19,24.98,25,24.98,25-11.18,25-24.98S38.81,0,25,0Zm-7.15,37.37c-1.89,0-3.78,0-5.67,0-.19,0-.18,0-.18-.19,0-2.96,0-5.92,0-8.88s0-5.9,0-8.86c0-.04,0-.08,0-.12,0-.07,.02-.09,.09-.09,.03,0,.07,0,.1,0,1.89,0,3.79,0,5.68,0q.19,0,.19,.19c0,5.92,0,11.83,0,17.75,0,.24-.02,.2-.21,.2Zm.11-22.01c-.4,.61-.96,1.01-1.64,1.24-.51,.17-1.04,.22-1.58,.19-.71-.04-1.36-.25-1.92-.68-.62-.48-1-1.12-1.13-1.89-.09-.5-.07-1,.08-1.5,.23-.76,.69-1.34,1.37-1.73,.45-.26,.93-.4,1.44-.46,.16-.02,.31-.02,.51-.02,.51-.01,1.03,.08,1.53,.31,.84,.37,1.39,1.01,1.67,1.88,.1,.32,.15,.64,.15,.97,0,.61-.16,1.18-.49,1.69Zm21.6,22.01c-1.88,0-3.76,0-5.64,0-.01,0-.03,0-.04,0q-.17,0-.17-.17c0-3.14,0-6.28,0-9.42,0-.46-.02-.93-.09-1.39-.1-.59-.26-1.15-.6-1.65-.38-.57-.9-.92-1.56-1.07-.65-.14-1.29-.12-1.92,.12-.56,.21-1.01,.56-1.37,1.02-.23,.29-.4,.6-.54,.94-.1,.25-.15,.52-.18,.79-.03,.28-.03,.56-.03,.84,0,3.26,0,6.52,0,9.78,0,.24,0,.21-.21,.21-1.89,0-3.78,0-5.67,0-.18,0-.18,0-.18-.18,0-.75,0-1.51,0-2.26,.02-1.59,0-3.18,.02-4.77,0-1.11,0-2.21,0-3.32,.02-1.21,.01-2.42,0-3.63,0-1.16,0-2.32-.02-3.47,0-.13-.01-.26-.02-.38,0-.11,.01-.12,.12-.12,.03,0,.06,0,.09,0,1.88,0,3.77,0,5.65,0q.2,0,.2,.2c0,.72,0,1.44,0,2.16v.14c.05-.03,.07-.07,.09-.1,.26-.39,.55-.75,.87-1.08,.84-.85,1.85-1.38,3.03-1.6,.32-.06,.64-.1,.96-.11,.87-.05,1.73,.03,2.57,.26,1.14,.32,2.11,.9,2.91,1.78,.56,.62,.97,1.34,1.27,2.12,.24,.64,.41,1.3,.51,1.97,.07,.47,.12,.95,.13,1.43,0,.2,.01,.41,.01,.61,0,3.39,0,6.78,0,10.16,0,.24,0,.21-.21,.21Z"/></svg>