<?xml version="1.0" encoding="UTF-8"?><svg id="a" xmlns="http://www.w3.org/2000/svg" viewBox="0 0 49.85 49.85"><defs><style>.b{fill:#c3264b;}</style></defs><path class="b" d="M24.92,0C11.16,0,0,11.16,0,24.92s11.16,24.92,24.92,24.92,24.92-11.16,24.92-24.92S38.69,0,24.92,0Zm15.44,17.06c-.59,.73-1.27,1.38-2.03,1.94-.22,.16-.31,.34-.3,.61,.07,2.49-.38,4.88-1.29,7.2-.76,1.92-1.78,3.69-3.12,5.27-1.61,1.9-3.5,3.43-5.75,4.51-2.05,.98-4.2,1.54-6.47,1.71-2.22,.17-4.39,0-6.53-.61-1.63-.46-3.15-1.15-4.6-2.01-.05-.03-.09-.07-.23-.18,3.49,.29,6.56-.55,9.27-2.64-.77-.08-1.5-.24-2.19-.54-1.67-.72-2.83-1.93-3.51-3.61-.13-.33-.1-.36,.24-.32,.77,.1,1.54,.08,2.34-.14-.15-.13-.3-.14-.43-.18-2.43-.7-4.31-3.02-4.49-5.54-.05-.69-.05-.68,.6-.4,.66,.29,1.35,.44,2.15,.5-.33-.3-.61-.54-.87-.8-1.94-1.92-2.43-4.98-1.2-7.42,.18-.36,.21-.36,.46-.07,1.55,1.83,3.4,3.31,5.53,4.41,2.07,1.07,4.26,1.74,6.59,1.94,.79,.07,.8,.06,.71-.73-.38-3.39,2.05-6.59,5.52-7.03,2.01-.25,3.81,.31,5.3,1.72,.2,.19,.37,.22,.62,.16,1.18-.28,2.3-.7,3.36-1.3,.07-.04,.15-.12,.22-.07,.1,.07,.02,.17,0,.25-.46,1.19-1.21,2.15-2.23,2.9-.07,.05-.13,.09-.2,.14-.01,.01-.02,.04-.04,.11,1.18-.15,2.28-.48,3.43-.97-.25,.49-.55,.82-.83,1.17Z"/></svg>